<svg baseProfile="tiny" xmlns="http://www.w3.org/2000/svg" viewBox="0 0 20 26.6"><path fill="#222" d="M20 6.7v19.9H0V0h13.3z"/><path fill="#fff" d="M1.7 1.7h10v1.7h-10zM1.7 5h10v1.7h-10zM1.7 8.3h16.7V10H1.7zM1.7 11.6h16.7v1.7H1.7zM1.7 15h16.7v1.7H1.7zM18.3 6.7l-5-5v5z"/><text transform="matrix(.923 0 0 1 1.778 23.397)" fill="#fff" font-family="'OpenSans-Bold'" font-size="6.666">.</text><text transform="matrix(.923 0 0 1 3.316 23.397)" fill="#fff" font-family="'OpenSans-Bold'" font-size="6.666">m</text><text transform="matrix(.923 0 0 1 9.141 23.397)" fill="#fff" font-family="'OpenSans-Bold'" font-size="6.666">o</text><text transform="matrix(.923 0 0 1 12.734 23.397)" fill="#fff" font-family="'OpenSans-Bold'" font-size="6.666">b</text><text transform="matrix(.923 0 0 1 16.411 23.397)" fill="#fff" font-family="'OpenSans-Bold'" font-size="6.666">i</text></svg>