<svg baseProfile="tiny" xmlns="http://www.w3.org/2000/svg" viewBox="0 0 20 26.6"><path fill="#222" d="M20 6.7v19.9H0V0h13.3z"/><path fill="#fff" d="M1.7 1.7h10v1.7h-10zm0 3.3h10v1.7h-10zm0 3.3h16.7V10H1.7zm0 3.3h16.7v1.7H1.7zm0 3.4h16.7v1.7H1.7zm16.6-8.3l-5-5v5z"/><text transform="matrix(.923 0 0 1 1.667 23.51)" fill="#fff" font-family="'OpenSans-Bold'" font-size="6.666">.</text><text transform="matrix(.923 0 0 1 3.2 23.51)" fill="#fff" font-family="'OpenSans-Bold'" font-size="6.666">e</text><text transform="matrix(.923 0 0 1 6.612 23.51)" fill="#fff" font-family="'OpenSans-Bold'" font-size="6.666">p</text><text transform="matrix(.923 0 0 1 10.283 23.51)" fill="#fff" font-family="'OpenSans-Bold'" font-size="6.666">u</text><text transform="matrix(.923 0 0 1 14.104 23.51)" fill="#fff" font-family="'OpenSans-Bold'" font-size="6.666">b</text></svg>